<svg width="112" height="45" viewBox="0 0 6098 1578" fill="none" xmlns="http://www.w3.org/2000/svg">
<path d="M3049.09 1223C2993.73 1219.64 2945.72 1231.15 2893.86 1211.39C2918.96 1160.69 2893.59 1118.88 2865.2 1076.65C2776.24 944.354 2688.48 811.39 2588.45 660.922C2478.45 822.372 2361.84 960.408 2270.58 1114.37C2247.39 1153.48 2283.8 1177.11 2307.66 1210.81C2227.23 1231.91 2160.66 1221.92 2083.96 1218.34C2112.35 1152.95 2180.22 1135.38 2213.84 1087.97C2315.23 945.032 2420.27 804.205 2526.39 664.124C2558.34 621.938 2542.52 588.559 2516.75 553.433C2389.17 379.539 2302.11 181.034 2117.28 21.8139C2224.99 -9.02677 2318.31 2.0187 2406.29 8.84347C2436 198.214 2585.61 319.736 2662.47 471.618C2713.4 469.554 2725.91 440.293 2742.66 417.267C2803.85 333.166 2863.83 248.332 2924.24 163.766C2956.83 118.159 2987.05 72.5315 2903.82 24.8138C2993.71 -5.53499 3063.67 -4.00103 3152.46 21.339C2967.13 148.435 2883.65 330.092 2757.76 482.95C2721.92 526.467 2722.24 561.829 2753.28 607.325C2851.89 751.881 2946.94 898.465 3042.53 1044.72C3079.86 1101.84 3131.63 1148.09 3183.42 1198.38C3145.16 1238.4 3098.06 1216.66 3049.09 1223Z" fill="black"/>
<path d="M135.076 1071.22C135.311 783.707 133.466 503.77 136.524 223.878C137.533 131.593 123.14 55.1411 0 29.2489C136.377 -2.30901 266.713 2.13468 407.521 27.3601C270.462 54.5924 278.374 143.609 278.94 233.082C280.763 521.649 282.602 810.275 277.666 1098.78C276.196 1184.72 307.677 1232.55 397.646 1258.36C638.665 1327.47 875.104 1410.2 1126.36 1447.11C1262.9 1467.18 1396.61 1463.85 1529.64 1428.42C1558.3 1420.79 1587.35 1403.26 1620.23 1417.72C1618.83 1460.78 1579.93 1467.92 1551.1 1482.62C1309.89 1605.59 1060.33 1600.11 809.083 1515.41C705.532 1480.49 605.587 1435.98 506.128 1391.85C345.121 1320.41 183.563 1250.98 3.27716 1215.14C72.8043 1185.46 133.474 1155.43 135.076 1071.22Z" fill="black"/>
<path d="M951.145 505.934C951.152 413.572 949.774 329.854 951.577 246.192C953.273 167.477 953.466 89.9961 867.113 18.8186C988.062 -4.53927 1088.7 -4.44746 1210.91 17.2185C1119.17 93.49 1130.98 178.993 1130.97 261.576C1130.93 446.269 1128.4 631.047 1133.58 815.634C1140.04 1045.52 1289.18 1180.08 1537.46 1188.36C1742.16 1195.19 1908.03 1047.36 1917.98 831.679C1927.41 627.141 1921.27 421.951 1919.49 217.066C1918.8 137.351 1873.9 76.4179 1783.78 22.0903C1880.95 -7.38337 1956.9 -1.31894 2052.37 16.7415C1961.47 105.568 1971.52 204.017 1971.84 301.03C1972.4 468.415 1973.34 635.819 1971.35 803.188C1968.2 1067.59 1792.26 1236.85 1519.88 1240.3C1172.67 1244.71 963.968 1087.12 952.464 808.945C948.413 710.955 951.384 612.723 951.145 505.934Z" fill="black"/>
<path d="M5397.73 28.5316C5467.72 -10.79 5502.83 4.1094 5531.55 68.9261C5653.73 344.634 5780.38 618.706 5906.75 892.856C5956.68 1001.18 5991.49 1117.58 6097.67 1206.89C6001.48 1226.92 5908.63 1225.25 5817.34 1217.54C5830.52 1053.96 5727.04 932.163 5671.46 796.743C5661.26 771.899 5631.03 772.228 5605.2 772.239C5472.1 772.294 5339 772.725 5205.9 772.28C5166.22 772.147 5141.37 786.617 5126.78 821.568C5097.5 891.706 5066.09 961.154 5033.51 1030.08C5004.1 1092.28 5007.22 1151.77 5054.27 1212.66C4977.37 1227.71 4911.12 1228.64 4848.48 1214.58C5085.26 895.531 5180.02 523.714 5351.87 183.597C5365.94 155.742 5365.35 127.404 5354.04 99.2596C5339.98 64.2832 5357.29 44.3573 5397.73 28.5316ZM5358.08 297.535C5302.59 435.957 5226.18 567.755 5183.59 722.167C5340.98 724.14 5483.05 738.153 5638.07 712.637C5559.73 541.842 5487.33 383.995 5414.78 225.82C5376.27 240.901 5374.81 266.67 5358.08 297.535Z" fill="black"/>
<path d="M4703.38 147.879C4733.65 92.6908 4680.05 63.677 4663.13 18.8217C4740.84 -3.80338 4810.1 -6.9623 4887.41 19.16C4699.53 203.155 4659.14 438.091 4559.44 647.081C4479.99 813.606 4415.12 985.885 4342.04 1154.98C4328.81 1185.58 4323.6 1230.56 4276.66 1231.65C4223.74 1232.89 4218.59 1185.07 4204 1151.8C4070.04 846.417 3935.79 541.127 3804.63 234.74C3771.16 156.552 3720.72 89.3372 3647.39 18.4632C3761.3 -6.49351 3856.28 1.27475 3966.39 9.2078C3919.48 79.5497 3948.46 136.52 3973.05 193.926C4090.26 467.66 4207.49 741.392 4333.21 1034.98C4465.41 729.943 4591.73 445.031 4703.38 147.879Z" fill="black"/>
<path d="M3330.59 350.116C3322.13 234.965 3361.72 121.233 3258.38 19.6488C3372.11 -8.43934 3471.24 2.00951 3579.37 17.9121C3492.89 94.831 3511.98 186.576 3511.79 274.15C3511.25 522.019 3512.64 769.895 3510.95 1017.76C3510.49 1085.52 3513.07 1150.18 3601.04 1216.1C3474.01 1226.7 3375.28 1225.17 3254.19 1216.55C3348.5 1127.56 3330.3 1031.02 3330.66 938.057C3331.4 744.952 3330.7 551.842 3330.59 350.116Z" fill="black"/>
</svg>
